<svg width="546" height="426" viewBox="0 0 546 426" fill="none" xmlns="http://www.w3.org/2000/svg">
<path d="M21 278.777C37.5501 256.021 312.696 -46.0194 369.587 34.6625C426.478 115.344 97.5444 284.983 86.1662 348.081C74.788 411.178 146.16 471.172 506.126 238.436" stroke="#B2FF00" stroke-width="41" stroke-linecap="round"/>
<path d="M428.547 209.258C440.727 210.179 452.721 212.818 464.623 215.465C478.626 218.579 492.82 221.807 506.541 226.054C510.842 227.386 514.663 229.283 518.737 231.093C519.611 231.482 521.25 231.806 521.877 232.59C523.174 234.212 527.22 231.768 522.534 232.262C519.299 232.602 517.038 241.209 515.925 243.435C507.05 261.185 501.027 280.241 495.733 299.301C493.189 308.461 489.493 317.692 489.014 327.271C488.943 328.694 488.231 330.343 487.7 328.22" stroke="#B2FF00" stroke-width="41" stroke-linecap="round"/>
</svg>
