<svg width="532" height="566" viewBox="0 0 532 566" fill="none" xmlns="http://www.w3.org/2000/svg">
<path d="M217.229 52.9913C204.153 103.792 191.391 153.403 182.107 206.19C171.71 265.301 167.022 322.985 166.895 383.92C166.827 416.396 166.722 450.044 171.704 481.882C173.863 495.674 177.909 508.92 180.988 522.335" stroke="#B2FF00" stroke-width="87" stroke-linecap="round"/>
<path d="M474.378 180.264C426.222 175.261 379.196 170.384 330.63 170.684C276.245 171.019 225.043 178.319 172.606 192.194C144.659 199.59 115.692 207.208 90.022 220.909C78.9021 226.844 68.899 235.067 58.4186 242.091" stroke="#B2FF00" stroke-width="87" stroke-linecap="round"/>
<path d="M488.273 411.268C438.5 400.246 389.894 389.492 338.943 383.762C281.887 377.345 227.184 378.34 170.259 385.808C139.919 389.788 108.479 393.867 79.637 404.482C67.1428 409.081 55.4963 416.123 43.5186 421.899" stroke="#B2FF00" stroke-width="87" stroke-linecap="round"/>
<path d="M400.65 44C387.108 94.6061 373.889 144.027 364.274 196.612C353.506 255.497 348.651 312.959 348.519 373.661C348.448 406.013 348.34 439.531 353.5 471.248C355.735 484.987 359.927 498.182 363.115 511.545" stroke="#B2FF00" stroke-width="87" stroke-linecap="round"/>
</svg>
